<svg width="62" height="61" viewBox="0 0 62 61" fill="none" xmlns="http://www.w3.org/2000/svg">
<g clip-path="url(#clip0_139_9723)">
<path d="M12.9011 59.2234C18.7001 59.2234 23.4011 54.5224 23.4011 48.7234C23.4011 42.9244 18.7001 38.2234 12.9011 38.2234C7.10213 38.2234 2.40112 42.9244 2.40112 48.7234C2.40112 54.5224 7.10213 59.2234 12.9011 59.2234Z" stroke="white" stroke-width="3"/>
<path d="M48.9011 59.2234C54.7001 59.2234 59.4011 54.5224 59.4011 48.7234C59.4011 42.9244 54.7001 38.2234 48.9011 38.2234C43.1021 38.2234 38.4011 42.9244 38.4011 48.7234C38.4011 54.5224 43.1021 59.2234 48.9011 59.2234Z" stroke="white" stroke-width="3"/>
<path d="M12.9011 53.7234C15.6625 53.7234 17.9011 51.4848 17.9011 48.7234C17.9011 45.962 15.6625 43.7234 12.9011 43.7234C10.1397 43.7234 7.90112 45.962 7.90112 48.7234C7.90112 51.4848 10.1397 53.7234 12.9011 53.7234Z" fill="#F6FB23"/>
<path d="M38.9011 7.72339H6.90112V17.7234H38.9011V7.72339Z" fill="url(#paint0_linear_139_9723)"/>
<path d="M48.9011 21.2234C53.5955 21.2234 57.4011 17.4178 57.4011 12.7234C57.4011 8.02897 53.5955 4.22339 48.9011 4.22339C44.2067 4.22339 40.4011 8.02897 40.4011 12.7234C40.4011 17.4178 44.2067 21.2234 48.9011 21.2234Z" stroke="white" stroke-width="7"/>
</g>
<defs>
<linearGradient id="paint0_linear_139_9723" x1="36.0072" y1="12.7234" x2="6.90112" y2="12.7234" gradientUnits="userSpaceOnUse">
<stop stop-color="#FBA82B"/>
<stop offset="1" stop-color="#FBA82B" stop-opacity="0"/>
</linearGradient>
<clipPath id="clip0_139_9723">
<rect width="61" height="61" fill="white" transform="translate(0.5)"/>
</clipPath>
</defs>
</svg>
