<svg width="68" height="70" viewBox="0 0 68 70" fill="none" xmlns="http://www.w3.org/2000/svg">
<path d="M36.1906 22.9839L26.5392 25.57C23.0383 26.508 21.5493 29.104 22.4904 32.6164L25.6779 44.5123C26.6345 48.0823 29.2097 49.5399 32.7105 48.6018L42.362 46.0157C45.9193 45.0625 47.3631 42.528 46.4065 38.9581L43.219 27.0622C42.2779 23.5498 39.7479 22.0307 36.1906 22.9839Z" fill="url(#paint0_linear_201_9230)"/>
<g filter="url(#filter0_f_201_9230)">
<rect x="29.5861" y="44.4519" width="15.3968" height="13.0382" rx="6.5191" transform="rotate(-105 29.5861 44.4519)" fill="#8237FF" fill-opacity="0.5"/>
</g>
<g filter="url(#filter1_b_201_9230)">
<path d="M45.2667 29.1396H35.2747C31.6504 29.1396 29.5402 31.2618 29.5402 34.898V47.2136C29.5402 50.9095 31.6504 52.984 35.2747 52.984H45.2667C48.9494 52.984 51 50.9095 51 47.2136V34.898C51 31.2618 48.9494 29.1396 45.2667 29.1396Z" fill="#BA90FF" fill-opacity="0.35"/>
<path d="M45.2667 28.6396H35.2747C33.3653 28.6396 31.7909 29.2005 30.694 30.3025C29.5973 31.4042 29.0402 32.984 29.0402 34.898V47.2136C29.0402 49.1556 29.5962 50.7398 30.6948 51.8383C31.7932 52.9367 33.3684 53.484 35.2747 53.484H45.2667C47.2003 53.484 48.777 52.9377 49.8693 51.8369C50.961 50.7367 51.5 49.1518 51.5 47.2136V34.898C51.5 32.9878 50.96 31.4073 49.8701 30.3039C48.7793 29.1995 47.2034 28.6396 45.2667 28.6396Z" stroke="url(#paint1_linear_201_9230)" stroke-linecap="round" stroke-linejoin="round"/>
</g>
<g filter="url(#filter2_bd_201_9230)">
<mask id="path-5-inside-1_201_9230" fill="white">
<path fill-rule="evenodd" clip-rule="evenodd" d="M44.3207 37.0282C44.6102 37.3177 44.6102 37.7876 44.3207 38.0772C44.0311 38.3667 43.5612 38.3667 43.2717 38.0772L42.501 37.3065L41.5709 38.2366L42.3416 39.0073C42.6311 39.2968 42.6311 39.7667 42.3416 40.0563C42.052 40.3458 41.5821 40.3458 41.2926 40.0563L40.5219 39.2856L39.0449 40.7626C39.5652 41.736 39.4268 42.9711 38.6072 43.7907C37.6043 44.7935 35.9721 44.7935 34.9686 43.79C33.9657 42.7871 33.9657 41.1549 34.9686 40.1521C35.7882 39.3324 37.0232 39.194 37.9959 39.7136L41.9765 35.733C42.266 35.4435 42.736 35.4435 43.0255 35.733L44.3207 37.0282ZM36.0167 41.2003C35.5922 41.6248 35.5915 42.3164 36.0167 42.7416C36.4412 43.1661 37.1328 43.1654 37.5573 42.7409C37.9818 42.3164 37.9825 41.6248 37.558 41.2003C37.1328 40.7751 36.4412 40.7758 36.0167 41.2003ZM41.2936 41.5923V41.5804H44.8571C45.371 41.5804 45.7883 41.9977 45.7883 42.5092C45.7883 43.0349 45.371 43.4522 44.8571 43.4522H41.2936C40.7798 43.4522 40.3637 43.0349 40.3637 42.5223C40.3637 42.0096 40.7798 41.5923 41.2936 41.5923ZM44.9435 47.3931H35.5966C35.2389 47.4407 34.8932 47.2619 34.7024 46.9639C34.5116 46.6539 34.5116 46.2604 34.7024 45.9624C34.8932 45.6524 35.2389 45.4855 35.5966 45.5213H44.9435C45.4192 45.569 45.7781 45.9743 45.7781 46.4631C45.7781 46.9388 45.4192 47.3454 44.9435 47.3931Z"/>
</mask>
<path fill-rule="evenodd" clip-rule="evenodd" d="M44.3207 37.0282C44.6102 37.3177 44.6102 37.7876 44.3207 38.0772C44.0311 38.3667 43.5612 38.3667 43.2717 38.0772L42.501 37.3065L41.5709 38.2366L42.3416 39.0073C42.6311 39.2968 42.6311 39.7667 42.3416 40.0563C42.052 40.3458 41.5821 40.3458 41.2926 40.0563L40.5219 39.2856L39.0449 40.7626C39.5652 41.736 39.4268 42.9711 38.6072 43.7907C37.6043 44.7935 35.9721 44.7935 34.9686 43.79C33.9657 42.7871 33.9657 41.1549 34.9686 40.1521C35.7882 39.3324 37.0232 39.194 37.9959 39.7136L41.9765 35.733C42.266 35.4435 42.736 35.4435 43.0255 35.733L44.3207 37.0282ZM36.0167 41.2003C35.5922 41.6248 35.5915 42.3164 36.0167 42.7416C36.4412 43.1661 37.1328 43.1654 37.5573 42.7409C37.9818 42.3164 37.9825 41.6248 37.558 41.2003C37.1328 40.7751 36.4412 40.7758 36.0167 41.2003ZM41.2936 41.5923V41.5804H44.8571C45.371 41.5804 45.7883 41.9977 45.7883 42.5092C45.7883 43.0349 45.371 43.4522 44.8571 43.4522H41.2936C40.7798 43.4522 40.3637 43.0349 40.3637 42.5223C40.3637 42.0096 40.7798 41.5923 41.2936 41.5923ZM44.9435 47.3931H35.5966C35.2389 47.4407 34.8932 47.2619 34.7024 46.9639C34.5116 46.6539 34.5116 46.2604 34.7024 45.9624C34.8932 45.6524 35.2389 45.4855 35.5966 45.5213H44.9435C45.4192 45.569 45.7781 45.9743 45.7781 46.4631C45.7781 46.9388 45.4192 47.3454 44.9435 47.3931Z" fill="url(#paint2_linear_201_9230)"/>
<path d="M44.3207 38.0772L44.0378 37.7943L44.3207 38.0772ZM44.3207 37.0282L44.6035 36.7453V36.7453L44.3207 37.0282ZM43.2717 38.0772L43.5545 37.7943V37.7943L43.2717 38.0772ZM42.501 37.3065L42.7839 37.0237L42.501 36.7408L42.2182 37.0237L42.501 37.3065ZM41.5709 38.2366L41.2881 37.9538L41.0052 38.2366L41.2881 38.5194L41.5709 38.2366ZM42.3416 39.0073L42.6244 38.7244V38.7244L42.3416 39.0073ZM42.3416 40.0563L42.6244 40.3391L42.6244 40.3391L42.3416 40.0563ZM41.2926 40.0563L41.0097 40.3391L41.2926 40.0563ZM40.5219 39.2856L40.8048 39.0028L40.5219 38.7199L40.2391 39.0028L40.5219 39.2856ZM39.0449 40.7626L38.7621 40.4797L38.5523 40.6895L38.6922 40.9511L39.0449 40.7626ZM38.6072 43.7907L38.3243 43.5078V43.5078L38.6072 43.7907ZM34.9686 43.79L34.6857 44.0728H34.6857L34.9686 43.79ZM34.9686 40.1521L34.6857 39.8692L34.9686 40.1521ZM37.9959 39.7136L37.8075 40.0664L38.0691 40.2061L38.2788 39.9964L37.9959 39.7136ZM41.9765 35.733L42.2594 36.0159V36.0159L41.9765 35.733ZM43.0255 35.733L43.3084 35.4502L43.3084 35.4502L43.0255 35.733ZM36.0167 42.7416L35.7338 43.0245H35.7338L36.0167 42.7416ZM37.5573 42.7409L37.2744 42.4581V42.4581L37.5573 42.7409ZM37.558 41.2003L37.8408 40.9174V40.9174L37.558 41.2003ZM41.2936 41.5804V41.1804H40.8936V41.5804H41.2936ZM41.2936 41.5923V41.9923H41.6936V41.5923H41.2936ZM35.5966 47.3931V46.993H35.57L35.5437 46.9966L35.5966 47.3931ZM44.9435 47.3931V47.793H44.9635L44.9834 47.7911L44.9435 47.3931ZM34.7024 46.9639L34.3617 47.1735L34.3655 47.1795L34.7024 46.9639ZM34.7024 45.9624L35.0394 46.178L35.0431 46.172L34.7024 45.9624ZM35.5966 45.5213L35.5568 45.9193L35.5766 45.9213H35.5966V45.5213ZM44.9435 45.5213L44.9834 45.1233L44.9635 45.1213H44.9435V45.5213ZM44.6035 38.36C45.0492 37.9143 45.0492 37.1911 44.6035 36.7453L44.0378 37.311C44.1711 37.4443 44.1711 37.661 44.0378 37.7943L44.6035 38.36ZM42.9888 38.36C43.4346 38.8057 44.1578 38.8057 44.6035 38.36L44.0378 37.7943C43.9045 37.9276 43.6878 37.9276 43.5545 37.7943L42.9888 38.36ZM42.2182 37.5893L42.9888 38.36L43.5545 37.7943L42.7839 37.0237L42.2182 37.5893ZM41.8538 38.5194L42.7839 37.5893L42.2182 37.0237L41.2881 37.9538L41.8538 38.5194ZM42.6244 38.7244L41.8538 37.9538L41.2881 38.5194L42.0587 39.2901L42.6244 38.7244ZM42.6244 40.3391C43.0701 39.8934 43.0701 39.1702 42.6244 38.7244L42.0587 39.2901C42.192 39.4234 42.192 39.6401 42.0587 39.7734L42.6244 40.3391ZM41.0097 40.3391C41.4555 40.7848 42.1787 40.7848 42.6244 40.3391L42.0587 39.7734C41.9254 39.9067 41.7087 39.9067 41.5754 39.7734L41.0097 40.3391ZM40.2391 39.5684L41.0097 40.3391L41.5754 39.7734L40.8048 39.0028L40.2391 39.5684ZM39.3278 41.0454L40.8048 39.5684L40.2391 39.0028L38.7621 40.4797L39.3278 41.0454ZM38.89 44.0735C39.8402 43.1233 39.997 41.6952 39.3977 40.574L38.6922 40.9511C39.1335 41.7768 39.0133 42.8188 38.3243 43.5078L38.89 44.0735ZM34.6857 44.0728C35.8454 45.2325 37.7309 45.2326 38.89 44.0735L38.3243 43.5078C37.4778 44.3544 36.0988 44.3545 35.2514 43.5071L34.6857 44.0728ZM34.6857 39.8692C33.5267 41.0283 33.5267 42.9138 34.6857 44.0728L35.2514 43.5071C34.4048 42.6605 34.4048 41.2815 35.2514 40.4349L34.6857 39.8692ZM38.1844 39.3608C37.0639 38.7622 35.6359 38.9191 34.6857 39.8692L35.2514 40.4349C35.9405 39.7458 36.9825 39.6257 37.8075 40.0664L38.1844 39.3608ZM41.6937 35.4502L37.7131 39.4307L38.2788 39.9964L42.2594 36.0159L41.6937 35.4502ZM43.3084 35.4502C42.8626 35.0044 42.1394 35.0044 41.6937 35.4502L42.2594 36.0159C42.3927 35.8825 42.6094 35.8825 42.7427 36.0159L43.3084 35.4502ZM44.6035 36.7453L43.3084 35.4502L42.7427 36.0159L44.0378 37.311L44.6035 36.7453ZM36.2995 42.4588C36.0307 42.19 36.0311 41.7516 36.2995 41.4831L35.7338 40.9174C35.1533 41.498 35.1523 42.4429 35.7338 43.0245L36.2995 42.4588ZM37.2744 42.4581C37.0058 42.7267 36.5675 42.7267 36.2995 42.4588L35.7338 43.0245C36.3149 43.6055 37.2598 43.6041 37.8401 43.0238L37.2744 42.4581ZM37.2751 41.4831C37.5431 41.7511 37.5431 42.1895 37.2744 42.4581L37.8401 43.0238C38.4205 42.4434 38.4219 41.4985 37.8408 40.9174L37.2751 41.4831ZM36.2995 41.4831C36.568 41.2147 37.0063 41.2143 37.2751 41.4831L37.8408 40.9174C37.2593 40.3359 36.3144 40.3369 35.7338 40.9174L36.2995 41.4831ZM40.8936 41.5804V41.5923H41.6936V41.5804H40.8936ZM44.8571 41.1804H41.2936V41.9804H44.8571V41.1804ZM46.1883 42.5092C46.1883 41.7761 45.5912 41.1804 44.8571 41.1804V41.9804C45.1507 41.9804 45.3883 42.2193 45.3883 42.5092H46.1883ZM44.8571 43.8522C45.5952 43.8522 46.1883 43.2525 46.1883 42.5092H45.3883C45.3883 42.8173 45.1468 43.0522 44.8571 43.0522V43.8522ZM41.2936 43.8522H44.8571V43.0522H41.2936V43.8522ZM39.9637 42.5223C39.9637 43.2555 40.5585 43.8522 41.2936 43.8522V43.0522C41.001 43.0522 40.7637 42.8143 40.7637 42.5223H39.9637ZM41.2936 41.1923C40.5585 41.1923 39.9637 41.789 39.9637 42.5223H40.7637C40.7637 42.2302 41.001 41.9923 41.2936 41.9923V41.1923ZM35.5966 47.793H44.9435V46.993H35.5966V47.793ZM34.3655 47.1795C34.6326 47.5968 35.1245 47.8595 35.6494 47.7895L35.5437 46.9966C35.3533 47.0219 35.1537 46.927 35.0393 46.7482L34.3655 47.1795ZM34.3655 45.7468C34.089 46.1788 34.0935 46.7376 34.3617 47.1735L35.0431 46.7542C34.9298 46.5702 34.9343 46.3421 35.0393 46.178L34.3655 45.7468ZM35.6364 45.1233C35.1287 45.0725 34.634 45.3103 34.3617 45.7528L35.0431 46.172C35.1523 45.9946 35.3491 45.8985 35.5568 45.9193L35.6364 45.1233ZM44.9435 45.1213H35.5966V45.9213H44.9435V45.1213ZM46.1781 46.4631C46.1781 45.7764 45.671 45.1922 44.9834 45.1233L44.9036 45.9193C45.1674 45.9457 45.3781 46.1722 45.3781 46.4631H46.1781ZM44.9834 47.7911C45.6682 47.7224 46.1781 47.1396 46.1781 46.4631H45.3781C45.3781 46.7381 45.1702 46.9683 44.9036 46.995L44.9834 47.7911Z" fill="url(#paint3_linear_201_9230)" mask="url(#path-5-inside-1_201_9230)"/>
</g>
<defs>
<filter id="filter0_f_201_9230" x="0.0645752" y="0.668701" width="67.6519" height="69.3196" filterUnits="userSpaceOnUse" color-interpolation-filters="sRGB">
<feFlood flood-opacity="0" result="BackgroundImageFix"/>
<feBlend mode="normal" in="SourceGraphic" in2="BackgroundImageFix" result="shape"/>
<feGaussianBlur stdDeviation="13.5" result="effect1_foregroundBlur_201_9230"/>
</filter>
<filter id="filter1_b_201_9230" x="21.5402" y="21.1396" width="37.4599" height="39.8442" filterUnits="userSpaceOnUse" color-interpolation-filters="sRGB">
<feFlood flood-opacity="0" result="BackgroundImageFix"/>
<feGaussianBlur in="BackgroundImageFix" stdDeviation="3.5"/>
<feComposite in2="SourceAlpha" operator="in" result="effect1_backgroundBlur_201_9230"/>
<feBlend mode="normal" in="SourceGraphic" in2="effect1_backgroundBlur_201_9230" result="shape"/>
</filter>
<filter id="filter2_bd_201_9230" x="19.2164" y="20.5159" width="41.5718" height="41.8848" filterUnits="userSpaceOnUse" color-interpolation-filters="sRGB">
<feFlood flood-opacity="0" result="BackgroundImageFix"/>
<feGaussianBlur in="BackgroundImageFix" stdDeviation="7.5"/>
<feComposite in2="SourceAlpha" operator="in" result="effect1_backgroundBlur_201_9230"/>
<feColorMatrix in="SourceAlpha" type="matrix" values="0 0 0 0 0 0 0 0 0 0 0 0 0 0 0 0 0 0 127 0" result="hardAlpha"/>
<feOffset dx="5" dy="5"/>
<feGaussianBlur stdDeviation="5"/>
<feColorMatrix type="matrix" values="0 0 0 0 0.577356 0 0 0 0 0.359375 0 0 0 0 0.9375 0 0 0 0.5 0"/>
<feBlend mode="normal" in2="effect1_backgroundBlur_201_9230" result="effect2_dropShadow_201_9230"/>
<feBlend mode="normal" in="SourceGraphic" in2="effect2_dropShadow_201_9230" result="shape"/>
</filter>
<linearGradient id="paint0_linear_201_9230" x1="31.3643" y1="24.2771" x2="37.5357" y2="47.3089" gradientUnits="userSpaceOnUse">
<stop stop-color="#BC94FF"/>
<stop offset="1" stop-color="#9F66FF"/>
</linearGradient>
<linearGradient id="paint1_linear_201_9230" x1="32.9562" y1="31.9175" x2="48.4245" y2="49.1596" gradientUnits="userSpaceOnUse">
<stop stop-color="white" stop-opacity="0.25"/>
<stop offset="1" stop-color="white" stop-opacity="0"/>
</linearGradient>
<linearGradient id="paint2_linear_201_9230" x1="44.7233" y1="35.3475" x2="28.1525" y2="35.8939" gradientUnits="userSpaceOnUse">
<stop stop-color="white"/>
<stop offset="1" stop-color="white" stop-opacity="0.2"/>
</linearGradient>
<linearGradient id="paint3_linear_201_9230" x1="36.0585" y1="36.9005" x2="43.6799" y2="46.0912" gradientUnits="userSpaceOnUse">
<stop stop-color="white" stop-opacity="0.25"/>
<stop offset="1" stop-color="white" stop-opacity="0"/>
</linearGradient>
</defs>
</svg>
