<svg width="25" height="26" viewBox="0 0 25 26" fill="none" xmlns="http://www.w3.org/2000/svg">
<path d="M23.4375 11.875C23.3188 11.8064 23.184 11.7703 23.0469 11.7703C22.9098 11.7703 22.775 11.8064 22.6563 11.875L12.5 17.6172L2.34377 11.875C2.22478 11.8063 2.08977 11.7702 1.95237 11.7703C1.81497 11.7705 1.68003 11.8068 1.56117 11.8758C1.44232 11.9447 1.34374 12.0438 1.2754 12.163C1.20705 12.2822 1.17135 12.4173 1.1719 12.5547V19.2969C1.1719 19.9185 1.41883 20.5146 1.85836 20.9542C2.2979 21.3937 2.89405 21.6406 3.51565 21.6406H21.4844C22.106 21.6406 22.7021 21.3937 23.1417 20.9542C23.5812 20.5146 23.8281 19.9185 23.8281 19.2969V12.5586C23.8294 12.4203 23.7939 12.2841 23.7252 12.164C23.6566 12.0439 23.5573 11.9442 23.4375 11.875Z" fill="white"/>
<path d="M21.4844 5.23438H3.51565C2.89405 5.23438 2.2979 5.48131 1.85836 5.92084C1.41883 6.36038 1.1719 6.95652 1.1719 7.57813V9.04297C1.17135 9.18063 1.20719 9.316 1.27579 9.43535C1.34438 9.55471 1.4433 9.65382 1.56252 9.72266L12.1094 15.6797C12.2282 15.7483 12.3629 15.7844 12.5 15.7844C12.6372 15.7844 12.7719 15.7483 12.8906 15.6797L23.4375 9.72266C23.5567 9.65382 23.6557 9.55471 23.7243 9.43535C23.7929 9.316 23.8287 9.18063 23.8281 9.04297V7.57813C23.8281 6.95652 23.5812 6.36038 23.1417 5.92084C22.7021 5.48131 22.106 5.23438 21.4844 5.23438Z" fill="white"/>
</svg>
