<svg width="62" height="61" viewBox="0 0 62 61" fill="none" xmlns="http://www.w3.org/2000/svg">
<mask id="mask0_139_9708" style="mask-type:alpha" maskUnits="userSpaceOnUse" x="0" y="0" width="61" height="61">
<path d="M37.7604 1.5181C31.3906 0.0220512 24.7063 0.64955 18.7262 3.30497C12.7461 5.96038 7.7981 10.4981 4.63626 16.2266C1.47443 21.9551 0.27214 28.5602 1.21261 35.0354C2.15308 41.5106 5.18473 47.5008 9.84557 52.0931C14.5064 56.6854 20.5409 59.628 27.0293 60.4725C33.5177 61.317 40.1043 60.017 45.7854 56.7707C51.4664 53.5243 55.9303 48.5097 58.4969 42.4909C61.0634 36.4722 61.5919 29.7793 60.0016 23.4324L57.0035 24.1835C58.4299 29.8766 57.9559 35.8799 55.6538 41.2786C53.3517 46.6773 49.3476 51.1753 44.2519 54.0871C39.1561 56.999 33.2481 58.165 27.4282 57.4076C21.6082 56.6501 16.1955 54.0107 12.0149 49.8915C7.83419 45.7723 5.11487 40.3992 4.2713 34.5912C3.42772 28.7831 4.50615 22.8584 7.34223 17.7201C10.1783 12.5818 14.6165 8.51162 19.9805 6.12978C25.3445 3.74795 31.3401 3.1851 37.0537 4.52701L37.7604 1.5181Z" fill="white"/>
</mask>
<g mask="url(#mask0_139_9708)">
<path d="M37.7604 1.5181C31.3906 0.0220512 24.7063 0.64955 18.7262 3.30497C12.7461 5.96038 7.7981 10.4981 4.63626 16.2266C1.47443 21.9551 0.27214 28.5602 1.21261 35.0354C2.15308 41.5106 5.18473 47.5008 9.84557 52.0931C14.5064 56.6854 20.5409 59.628 27.0293 60.4725C33.5177 61.317 40.1043 60.017 45.7854 56.7707C51.4664 53.5243 55.9303 48.5097 58.4969 42.4909C61.0634 36.4722 61.5919 29.7793 60.0016 23.4324L57.0035 24.1835C58.4299 29.8766 57.9559 35.8799 55.6538 41.2786C53.3517 46.6773 49.3476 51.1753 44.2519 54.0871C39.1561 56.999 33.2481 58.165 27.4282 57.4076C21.6082 56.6501 16.1955 54.0107 12.0149 49.8915C7.83419 45.7723 5.11487 40.3992 4.2713 34.5912C3.42772 28.7831 4.50615 22.8584 7.34223 17.7201C10.1783 12.5818 14.6165 8.51162 19.9805 6.12978C25.3445 3.74795 31.3401 3.1851 37.0537 4.52701L37.7604 1.5181Z" stroke="white" stroke-width="6"/>
</g>
<mask id="mask1_139_9708" style="mask-type:alpha" maskUnits="userSpaceOnUse" x="11" y="10" width="40" height="41">
<path d="M26.3627 50.0473C30.5773 51.0372 35 50.622 38.9567 48.865C42.9135 47.1081 46.1873 44.1057 48.2794 40.3154C50.3714 36.5252 51.1669 32.1549 50.5446 27.8705C49.9224 23.5862 47.9165 19.6228 44.8326 16.5843C41.7488 13.5458 37.7561 11.5988 33.463 11.04C29.1699 10.4813 24.8119 11.3414 21.053 13.4894C17.2942 15.6373 14.3406 18.9553 12.6424 22.9376C10.9443 26.9199 10.5946 31.3482 11.6468 35.5477L14.2503 34.8954C13.3404 31.2638 13.6428 27.4342 15.1113 23.9904C16.5799 20.5465 19.1341 17.6772 22.3847 15.8197C25.6353 13.9622 29.404 13.2184 33.1166 13.7016C36.8292 14.1848 40.282 15.8685 42.9488 18.4962C45.6157 21.1238 47.3504 24.5513 47.8885 28.2563C48.4266 31.9613 47.7387 35.7407 45.9295 39.0184C44.1204 42.2962 41.2892 44.8926 37.8675 46.412C34.4458 47.9314 30.6211 48.2904 26.9764 47.4344L26.3627 50.0473Z" fill="white"/>
</mask>
<g mask="url(#mask1_139_9708)">
<path d="M26.3627 50.0473C30.5773 51.0372 35 50.622 38.9567 48.865C42.9135 47.1081 46.1873 44.1057 48.2794 40.3154C50.3714 36.5252 51.1669 32.1549 50.5446 27.8705C49.9224 23.5862 47.9165 19.6228 44.8326 16.5843C41.7488 13.5458 37.7561 11.5988 33.463 11.04C29.1699 10.4813 24.8119 11.3414 21.053 13.4894C17.2942 15.6373 14.3406 18.9553 12.6424 22.9376C10.9443 26.9199 10.5946 31.3482 11.6468 35.5477L14.2503 34.8954C13.3404 31.2638 13.6428 27.4342 15.1113 23.9904C16.5799 20.5465 19.1341 17.6772 22.3847 15.8197C25.6353 13.9622 29.404 13.2184 33.1166 13.7016C36.8292 14.1848 40.282 15.8685 42.9488 18.4962C45.6157 21.1238 47.3504 24.5513 47.8885 28.2563C48.4266 31.9613 47.7387 35.7407 45.9295 39.0184C44.1204 42.2962 41.2892 44.8926 37.8675 46.412C34.4458 47.9314 30.6211 48.2904 26.9764 47.4344L26.3627 50.0473Z" stroke="url(#paint0_linear_139_9708)" stroke-width="6"/>
<path d="M30.9011 38.7234C35.3194 38.7234 38.9011 35.1417 38.9011 30.7234C38.9011 26.3051 35.3194 22.7234 30.9011 22.7234C26.4828 22.7234 22.9011 26.3051 22.9011 30.7234C22.9011 35.1417 26.4828 38.7234 30.9011 38.7234Z" fill="#F6FB23"/>
</g>
<defs>
<linearGradient id="paint0_linear_139_9708" x1="46.7257" y1="21.0737" x2="23.149" y2="40.6605" gradientUnits="userSpaceOnUse">
<stop stop-color="#48CCE0"/>
<stop offset="1" stop-color="#48CCE0" stop-opacity="0"/>
</linearGradient>
</defs>
</svg>
