<svg width="62" height="61" viewBox="0 0 62 61" fill="none" xmlns="http://www.w3.org/2000/svg">
<g clip-path="url(#clip0_139_9695)">
<path d="M7.90112 12.7234C7.90112 15.4848 10.1397 17.7234 12.9011 17.7234C15.6625 17.7234 17.9011 15.4848 17.9011 12.7234C17.9011 9.96196 15.6625 7.72339 12.9011 7.72339C10.1397 7.72339 7.90112 9.96196 7.90112 12.7234Z" fill="#F6FB23"/>
<path d="M53.9011 38.7236V0.723633L43.9011 0.723633V38.7236H53.9011Z" fill="url(#paint0_linear_139_9695)"/>
<path d="M7.90112 22.7234L7.90112 60.7234H17.9011V22.7234H7.90112Z" fill="url(#paint1_linear_139_9695)"/>
<path d="M40.4011 48.7234C40.4011 53.4178 44.2067 57.2234 48.9011 57.2234C53.5955 57.2234 57.4011 53.4178 57.4011 48.7234C57.4011 44.029 53.5955 40.2234 48.9011 40.2234C44.2067 40.2234 40.4011 44.029 40.4011 48.7234Z" stroke="white" stroke-width="7"/>
<path d="M2.40112 12.7234C2.40112 18.5224 7.10213 23.2234 12.9011 23.2234C18.7001 23.2234 23.4011 18.5224 23.4011 12.7234C23.4011 6.9244 18.7001 2.22339 12.9011 2.22339C7.10213 2.22339 2.40112 6.9244 2.40112 12.7234Z" stroke="white" stroke-width="3"/>
</g>
<defs>
<linearGradient id="paint0_linear_139_9695" x1="48.9011" y1="35.2871" x2="48.9011" y2="0.723633" gradientUnits="userSpaceOnUse">
<stop stop-color="#BE40C0"/>
<stop offset="1" stop-color="#BE40C0" stop-opacity="0"/>
</linearGradient>
<linearGradient id="paint1_linear_139_9695" x1="12.9011" y1="26.1599" x2="12.9011" y2="60.7234" gradientUnits="userSpaceOnUse">
<stop stop-color="#BE40C0"/>
<stop offset="1" stop-color="#BE40C0" stop-opacity="0"/>
</linearGradient>
<clipPath id="clip0_139_9695">
<rect width="61" height="61" fill="white" transform="translate(0.5)"/>
</clipPath>
</defs>
</svg>
