<svg width="69" height="71" viewBox="0 0 69 71" fill="none" xmlns="http://www.w3.org/2000/svg">
<path d="M36.5837 23.1395L26.9322 25.7256C23.4313 26.6637 21.9423 29.2597 22.8834 32.772L26.0709 44.6679C27.0275 48.2379 29.6027 49.6955 33.1035 48.7574L42.755 46.1713C46.3123 45.2182 47.7561 42.6837 46.7996 39.1137L43.612 27.2178C42.6709 23.7054 40.1409 22.1863 36.5837 23.1395Z" fill="url(#paint0_linear_440_27047)"/>
<g filter="url(#filter0_f_440_27047)">
<path d="M36.2761 42.9202C32.7984 43.852 29.2237 41.7882 28.2918 38.3105L27.6814 36.0322C26.7495 32.5545 28.8134 28.9798 32.2911 28.048C35.7688 27.1161 39.3435 29.18 40.2753 32.6577L40.8858 34.9359C41.8176 38.4136 39.7538 41.9883 36.2761 42.9202Z" fill="#8237FF" fill-opacity="0.5"/>
</g>
<g filter="url(#filter1_b_440_27047)">
<path d="M45.6596 29.2954H35.6677C32.0433 29.2954 29.9331 31.4176 29.9331 35.0538V47.3694C29.9331 51.0653 32.0433 53.1397 35.6677 53.1397H45.6596C49.3424 53.1397 51.393 51.0653 51.393 47.3694V35.0538C51.393 31.4176 49.3424 29.2954 45.6596 29.2954Z" fill="#BA90FF" fill-opacity="0.35"/>
<path d="M45.6596 28.7954H35.6677C33.7583 28.7954 32.1839 29.3563 31.0869 30.4583C29.9902 31.5599 29.4331 33.1397 29.4331 35.0538V47.3694C29.4331 49.3113 29.9892 50.8955 31.0877 51.9941C32.1861 53.0925 33.7613 53.6397 35.6677 53.6397H45.6596C47.5933 53.6397 49.17 53.0935 50.2623 51.9927C51.3539 50.8925 51.893 49.3075 51.893 47.3694V35.0538C51.893 33.1435 51.3529 31.563 50.2631 30.4596C49.1722 29.3553 47.5963 28.7954 45.6596 28.7954Z" stroke="url(#paint1_linear_440_27047)" stroke-linecap="round" stroke-linejoin="round"/>
</g>
<g filter="url(#filter2_bd_440_27047)">
<mask id="path-5-inside-1_440_27047" fill="white">
<path fill-rule="evenodd" clip-rule="evenodd" d="M44.7136 37.1839C45.0031 37.4734 45.0031 37.9434 44.7136 38.2329C44.4241 38.5224 43.9541 38.5224 43.6646 38.2329L42.894 37.4623L41.9639 38.3924L42.7345 39.163C43.024 39.4525 43.024 39.9225 42.7345 40.212C42.445 40.5015 41.975 40.5015 41.6855 40.212L40.9149 39.4414L39.4379 40.9183C39.9582 41.8918 39.8197 43.1268 39.0001 43.9464C37.9973 44.9493 36.365 44.9493 35.3615 43.9457C34.3587 42.9429 34.3587 41.3107 35.3615 40.3078C36.1811 39.4882 37.4161 39.3497 38.3889 39.8693L42.3695 35.8888C42.659 35.5993 43.1289 35.5993 43.4185 35.8888L44.7136 37.1839ZM36.4096 41.3561C35.9851 41.7805 35.9844 42.4722 36.4096 42.8974C36.8341 43.3219 37.5257 43.3212 37.9502 42.8967C38.3747 42.4722 38.3754 41.7805 37.9509 41.3561C37.5257 40.9309 36.8341 40.9316 36.4096 41.3561ZM41.6866 41.7481V41.7362H45.2501C45.7639 41.7362 46.1812 42.1535 46.1812 42.6649C46.1812 43.1907 45.7639 43.608 45.2501 43.608H41.6866C41.1727 43.608 40.7566 43.1907 40.7566 42.678C40.7566 42.1654 41.1727 41.7481 41.6866 41.7481ZM45.3365 47.5488H35.9895C35.6318 47.5965 35.2861 47.4177 35.0953 47.1196C34.9046 46.8096 34.9046 46.4162 35.0953 46.1182C35.2861 45.8082 35.6318 45.6413 35.9895 45.677H45.3365C45.8122 45.7247 46.171 46.1301 46.171 46.6189C46.171 47.0946 45.8122 47.5011 45.3365 47.5488Z"/>
</mask>
<path fill-rule="evenodd" clip-rule="evenodd" d="M44.7136 37.1839C45.0031 37.4734 45.0031 37.9434 44.7136 38.2329C44.4241 38.5224 43.9541 38.5224 43.6646 38.2329L42.894 37.4623L41.9639 38.3924L42.7345 39.163C43.024 39.4525 43.024 39.9225 42.7345 40.212C42.445 40.5015 41.975 40.5015 41.6855 40.212L40.9149 39.4414L39.4379 40.9183C39.9582 41.8918 39.8197 43.1268 39.0001 43.9464C37.9973 44.9493 36.365 44.9493 35.3615 43.9457C34.3587 42.9429 34.3587 41.3107 35.3615 40.3078C36.1811 39.4882 37.4161 39.3497 38.3889 39.8693L42.3695 35.8888C42.659 35.5993 43.1289 35.5993 43.4185 35.8888L44.7136 37.1839ZM36.4096 41.3561C35.9851 41.7805 35.9844 42.4722 36.4096 42.8974C36.8341 43.3219 37.5257 43.3212 37.9502 42.8967C38.3747 42.4722 38.3754 41.7805 37.9509 41.3561C37.5257 40.9309 36.8341 40.9316 36.4096 41.3561ZM41.6866 41.7481V41.7362H45.2501C45.7639 41.7362 46.1812 42.1535 46.1812 42.6649C46.1812 43.1907 45.7639 43.608 45.2501 43.608H41.6866C41.1727 43.608 40.7566 43.1907 40.7566 42.678C40.7566 42.1654 41.1727 41.7481 41.6866 41.7481ZM45.3365 47.5488H35.9895C35.6318 47.5965 35.2861 47.4177 35.0953 47.1196C34.9046 46.8096 34.9046 46.4162 35.0953 46.1182C35.2861 45.8082 35.6318 45.6413 35.9895 45.677H45.3365C45.8122 45.7247 46.171 46.1301 46.171 46.6189C46.171 47.0946 45.8122 47.5011 45.3365 47.5488Z" fill="url(#paint2_linear_440_27047)"/>
<path d="M44.7136 38.2329L44.4308 37.9501L44.4308 37.9501L44.7136 38.2329ZM44.7136 37.1839L44.9965 36.9011L44.9965 36.9011L44.7136 37.1839ZM43.6646 38.2329L43.9475 37.9501L43.9475 37.9501L43.6646 38.2329ZM42.894 37.4623L43.1768 37.1794L42.894 36.8966L42.6111 37.1794L42.894 37.4623ZM41.9639 38.3924L41.681 38.1095L41.3982 38.3924L41.681 38.6752L41.9639 38.3924ZM42.7345 39.163L43.0174 38.8802L43.0174 38.8802L42.7345 39.163ZM42.7345 40.212L43.0174 40.4949L43.0174 40.4949L42.7345 40.212ZM41.6855 40.212L41.4027 40.4949L41.4027 40.4949L41.6855 40.212ZM40.9149 39.4414L41.1977 39.1585L40.9149 38.8757L40.632 39.1585L40.9149 39.4414ZM39.4379 40.9183L39.155 40.6355L38.9453 40.8453L39.0851 41.1069L39.4379 40.9183ZM39.0001 43.9464L38.7173 43.6636L38.7173 43.6636L39.0001 43.9464ZM35.3615 43.9457L35.0787 44.2286L35.0787 44.2286L35.3615 43.9457ZM35.3615 40.3078L35.0787 40.025L35.3615 40.3078ZM38.3889 39.8693L38.2004 40.2222L38.462 40.3619L38.6717 40.1522L38.3889 39.8693ZM42.3695 35.8888L42.6523 36.1716L42.6523 36.1716L42.3695 35.8888ZM43.4185 35.8888L43.7013 35.6059L43.7013 35.6059L43.4185 35.8888ZM37.9502 42.8967L38.2331 43.1795L38.2331 43.1795L37.9502 42.8967ZM41.6866 41.7362V41.3362H41.2866V41.7362H41.6866ZM41.6866 41.7481V42.1481H42.0866V41.7481H41.6866ZM35.9895 47.5488V47.1488H35.963L35.9366 47.1523L35.9895 47.5488ZM45.3365 47.5488V47.9488H45.3565L45.3764 47.9468L45.3365 47.5488ZM35.0953 47.1196L34.7546 47.3293L34.7584 47.3352L35.0953 47.1196ZM35.0953 46.1182L35.4323 46.3338L35.436 46.3278L35.0953 46.1182ZM35.9895 45.677L35.9497 46.075L35.9696 46.077H35.9895V45.677ZM45.3365 45.677L45.3764 45.279L45.3565 45.277H45.3365V45.677ZM44.9965 38.5158C45.4422 38.07 45.4422 37.3468 44.9965 36.9011L44.4308 37.4668C44.5641 37.6001 44.5641 37.8168 44.4308 37.9501L44.9965 38.5158ZM43.3818 38.5158C43.8275 38.9615 44.5507 38.9615 44.9965 38.5158L44.4308 37.9501C44.2975 38.0834 44.0808 38.0834 43.9475 37.9501L43.3818 38.5158ZM42.6111 37.7451L43.3818 38.5158L43.9475 37.9501L43.1768 37.1794L42.6111 37.7451ZM42.2467 38.6752L43.1768 37.7451L42.6111 37.1794L41.681 38.1095L42.2467 38.6752ZM43.0174 38.8802L42.2467 38.1095L41.681 38.6752L42.4517 39.4459L43.0174 38.8802ZM43.0174 40.4949C43.4631 40.0491 43.4631 39.3259 43.0174 38.8802L42.4517 39.4459C42.585 39.5792 42.585 39.7959 42.4517 39.9292L43.0174 40.4949ZM41.4027 40.4949C41.8484 40.9406 42.5716 40.9406 43.0174 40.4949L42.4517 39.9292C42.3184 40.0625 42.1017 40.0625 41.9684 39.9292L41.4027 40.4949ZM40.632 39.7242L41.4027 40.4949L41.9684 39.9292L41.1977 39.1585L40.632 39.7242ZM39.7207 41.2012L41.1977 39.7242L40.632 39.1585L39.155 40.6355L39.7207 41.2012ZM39.2829 44.2293C40.2332 43.2791 40.3899 41.851 39.7907 40.7298L39.0851 41.1069C39.5264 41.9326 39.4063 42.9746 38.7173 43.6636L39.2829 44.2293ZM35.0787 44.2286C36.2383 45.3882 38.1238 45.3884 39.2829 44.2293L38.7173 43.6636C37.8707 44.5101 36.4917 44.5103 35.6443 43.6629L35.0787 44.2286ZM35.0787 40.025C33.9196 41.184 33.9196 43.0695 35.0787 44.2286L35.6443 43.6629C34.7977 42.8163 34.7977 41.4373 35.6443 40.5907L35.0787 40.025ZM38.5774 39.5165C37.4568 38.918 36.0288 39.0748 35.0787 40.025L35.6443 40.5907C36.3334 39.9016 37.3754 39.7815 38.2004 40.2222L38.5774 39.5165ZM42.0866 35.6059L38.106 39.5865L38.6717 40.1522L42.6523 36.1716L42.0866 35.6059ZM43.7013 35.6059C43.2556 35.1602 42.5324 35.1602 42.0866 35.6059L42.6523 36.1716C42.7856 36.0383 43.0023 36.0383 43.1356 36.1716L43.7013 35.6059ZM44.9965 36.9011L43.7013 35.6059L43.1356 36.1716L44.4308 37.4668L44.9965 36.9011ZM36.6925 42.6145C36.4236 42.3457 36.424 41.9073 36.6925 41.6389L36.1268 41.0732C35.5462 41.6537 35.5452 42.5986 36.1268 43.1802L36.6925 42.6145ZM37.6674 42.6138C37.3988 42.8824 36.9604 42.8825 36.6925 42.6145L36.1268 43.1802C36.7078 43.7612 37.6527 43.7599 38.2331 43.1795L37.6674 42.6138ZM37.6681 41.6389C37.936 41.9068 37.936 42.3452 37.6674 42.6138L38.2331 43.1795C38.8134 42.5991 38.8148 41.6542 38.2338 41.0732L37.6681 41.6389ZM36.6925 41.6389C36.9609 41.3704 37.3993 41.3701 37.6681 41.6389L38.2338 41.0732C37.6522 40.4916 36.7073 40.4927 36.1268 41.0732L36.6925 41.6389ZM41.2866 41.7362V41.7481H42.0866V41.7362H41.2866ZM45.2501 41.3362H41.6866V42.1362H45.2501V41.3362ZM46.5812 42.6649C46.5812 41.9319 45.9842 41.3362 45.2501 41.3362V42.1362C45.5437 42.1362 45.7812 42.375 45.7812 42.6649H46.5812ZM45.2501 44.008C45.9882 44.008 46.5812 43.4083 46.5812 42.6649H45.7812C45.7812 42.9731 45.5397 43.208 45.2501 43.208V44.008ZM41.6866 44.008H45.2501V43.208H41.6866V44.008ZM40.3566 42.678C40.3566 43.4113 40.9515 44.008 41.6866 44.008V43.208C41.394 43.208 41.1566 42.9701 41.1566 42.678H40.3566ZM41.6866 41.3481C40.9515 41.3481 40.3566 41.9448 40.3566 42.678H41.1566C41.1566 42.386 41.394 42.1481 41.6866 42.1481V41.3481ZM35.9895 47.9488H45.3365V47.1488H35.9895V47.9488ZM34.7584 47.3352C35.0255 47.7525 35.5175 48.0153 36.0424 47.9453L35.9366 47.1523C35.7462 47.1777 35.5467 47.0828 35.4323 46.904L34.7584 47.3352ZM34.7584 45.9025C34.482 46.3345 34.4864 46.8933 34.7547 47.3293L35.436 46.91C35.3228 46.726 35.3272 46.4979 35.4323 46.3338L34.7584 45.9025ZM36.0293 45.279C35.5216 45.2282 35.027 45.466 34.7547 45.9085L35.436 46.3278C35.5452 46.1503 35.7421 46.0543 35.9497 46.075L36.0293 45.279ZM45.3365 45.277H35.9895V46.077H45.3365V45.277ZM46.571 46.6189C46.571 45.9322 46.064 45.348 45.3764 45.279L45.2966 46.075C45.5604 46.1015 45.771 46.3279 45.771 46.6189H46.571ZM45.3764 47.9468C46.0612 47.8782 46.571 47.2953 46.571 46.6189H45.771C45.771 46.8938 45.5632 47.1241 45.2966 47.1508L45.3764 47.9468Z" fill="url(#paint3_linear_440_27047)" mask="url(#path-5-inside-1_440_27047)"/>
</g>
<defs>
<filter id="filter0_f_440_27047" x="0.457642" y="0.824219" width="67.6519" height="69.3196" filterUnits="userSpaceOnUse" color-interpolation-filters="sRGB">
<feFlood flood-opacity="0" result="BackgroundImageFix"/>
<feBlend mode="normal" in="SourceGraphic" in2="BackgroundImageFix" result="shape"/>
<feGaussianBlur stdDeviation="13.5" result="effect1_foregroundBlur_440_27047"/>
</filter>
<filter id="filter1_b_440_27047" x="21.9331" y="21.2954" width="37.4598" height="39.8442" filterUnits="userSpaceOnUse" color-interpolation-filters="sRGB">
<feFlood flood-opacity="0" result="BackgroundImageFix"/>
<feGaussianBlur in="BackgroundImageFix" stdDeviation="3.5"/>
<feComposite in2="SourceAlpha" operator="in" result="effect1_backgroundBlur_440_27047"/>
<feBlend mode="normal" in="SourceGraphic" in2="effect1_backgroundBlur_440_27047" result="shape"/>
</filter>
<filter id="filter2_bd_440_27047" x="19.6094" y="20.6716" width="41.5718" height="41.8848" filterUnits="userSpaceOnUse" color-interpolation-filters="sRGB">
<feFlood flood-opacity="0" result="BackgroundImageFix"/>
<feGaussianBlur in="BackgroundImageFix" stdDeviation="7.5"/>
<feComposite in2="SourceAlpha" operator="in" result="effect1_backgroundBlur_440_27047"/>
<feColorMatrix in="SourceAlpha" type="matrix" values="0 0 0 0 0 0 0 0 0 0 0 0 0 0 0 0 0 0 127 0" result="hardAlpha"/>
<feOffset dx="5" dy="5"/>
<feGaussianBlur stdDeviation="5"/>
<feColorMatrix type="matrix" values="0 0 0 0 0.577356 0 0 0 0 0.359375 0 0 0 0 0.9375 0 0 0 0.5 0"/>
<feBlend mode="normal" in2="effect1_backgroundBlur_440_27047" result="effect2_dropShadow_440_27047"/>
<feBlend mode="normal" in="SourceGraphic" in2="effect2_dropShadow_440_27047" result="shape"/>
</filter>
<linearGradient id="paint0_linear_440_27047" x1="31.7574" y1="24.4328" x2="37.9288" y2="47.4647" gradientUnits="userSpaceOnUse">
<stop stop-color="#BC94FF"/>
<stop offset="1" stop-color="#9F66FF"/>
</linearGradient>
<linearGradient id="paint1_linear_440_27047" x1="33.3492" y1="32.0733" x2="48.8174" y2="49.3153" gradientUnits="userSpaceOnUse">
<stop stop-color="white" stop-opacity="0.25"/>
<stop offset="1" stop-color="white" stop-opacity="0"/>
</linearGradient>
<linearGradient id="paint2_linear_440_27047" x1="45.1163" y1="35.5033" x2="28.5455" y2="36.0497" gradientUnits="userSpaceOnUse">
<stop stop-color="white"/>
<stop offset="1" stop-color="white" stop-opacity="0.2"/>
</linearGradient>
<linearGradient id="paint3_linear_440_27047" x1="36.4514" y1="37.0562" x2="44.0728" y2="46.2469" gradientUnits="userSpaceOnUse">
<stop stop-color="white" stop-opacity="0.25"/>
<stop offset="1" stop-color="white" stop-opacity="0"/>
</linearGradient>
</defs>
</svg>
