<svg width="50" height="46" viewBox="0 0 50 46" fill="none" xmlns="http://www.w3.org/2000/svg">
<path d="M20.5142 14.8318C16.127 14.8318 12.5 18.3399 12.5 22.6802C12.5 24.8673 13.2945 26.8979 14.6046 28.6189C16.0366 30.5173 17.8168 32.1713 19.832 33.4697C20.3353 33.7923 20.7492 33.7697 21.2078 33.4697C23.2116 32.1713 24.9918 30.5173 26.4361 28.6189C27.7453 26.8979 28.5408 24.8673 28.5408 22.6802C28.5408 18.3399 24.9138 14.8318 20.5142 14.8318Z" fill="#4096FE"/>
<g opacity="0.5" filter="url(#filter0_f_159_9175)">
<path d="M20.5338 19.2378C18.1601 19.2378 16.1978 21.1093 16.1978 23.4247C16.1978 24.5915 16.6276 25.6748 17.3365 26.5929C18.1112 27.6057 19.0744 28.488 20.1647 29.1807C20.4371 29.3528 20.661 29.3407 20.9091 29.1807C21.9933 28.488 22.9565 27.6057 23.7379 26.5929C24.4463 25.6748 24.8766 24.5915 24.8766 23.4247C24.8766 21.1093 22.9142 19.2378 20.5338 19.2378Z" fill="#004FFF"/>
</g>
<g filter="url(#filter1_b_159_9175)">
<path d="M30.4415 6.5C23.8505 6.5 18.4016 11.7703 18.4016 18.2908C18.4016 21.5766 19.5952 24.6271 21.5635 27.2126C23.7147 30.0647 26.3891 32.5496 29.4166 34.5001C30.1728 34.9849 30.7946 34.9508 31.4835 34.5001C34.4939 32.5496 37.1683 30.0647 39.3381 27.2126C41.305 24.6271 42.5 21.5766 42.5 18.2908C42.5 11.7703 37.0511 6.5 30.4415 6.5Z" fill="#3EA0FE" fill-opacity="0.35"/>
<path d="M29.1458 34.9204L29.1468 34.921C29.582 35.2 30.0215 35.3567 30.4816 35.3509C30.9403 35.3451 31.3597 35.1784 31.7561 34.9192C34.8149 32.9372 37.5316 30.4129 39.7361 27.5154L39.7361 27.5154C41.7586 24.8566 43 21.7022 43 18.2908C43 11.4821 37.315 6 30.4415 6C23.5861 6 17.9016 11.4826 17.9016 18.2908C17.9016 21.7016 19.1411 24.8558 21.1649 27.5145C23.3516 30.4133 26.0693 32.9383 29.1458 34.9204Z" stroke="url(#paint0_linear_159_9175)" stroke-linecap="round" stroke-linejoin="round"/>
</g>
<g filter="url(#filter2_bd_159_9175)">
<mask id="path-5-inside-1_159_9175" fill="white">
<path d="M30.3543 22.5594C28.1687 22.5594 26.3862 20.8414 26.3862 18.657C26.3862 16.4896 28.1687 14.688 30.3543 14.688C32.5413 14.688 34.3409 16.4896 34.3409 18.657C34.3409 20.8414 32.5413 22.5594 30.3543 22.5594"/>
</mask>
<path d="M30.3543 22.5594C28.1687 22.5594 26.3862 20.8414 26.3862 18.657C26.3862 16.4896 28.1687 14.688 30.3543 14.688C32.5413 14.688 34.3409 16.4896 34.3409 18.657C34.3409 20.8414 32.5413 22.5594 30.3543 22.5594" fill="url(#paint1_linear_159_9175)"/>
<path d="M30.3543 22.3594C28.2748 22.3594 26.5862 20.7267 26.5862 18.657H26.1862C26.1862 20.9561 28.0626 22.7594 30.3543 22.7594V22.3594ZM26.5862 18.657C26.5862 16.5994 28.2798 14.888 30.3543 14.888V14.488C28.0576 14.488 26.1862 16.3798 26.1862 18.657H26.5862ZM30.3543 14.888C32.4313 14.888 34.1409 16.6006 34.1409 18.657H34.5409C34.5409 16.3787 32.6512 14.488 30.3543 14.488V14.888ZM34.1409 18.657C34.1409 20.7255 32.4363 22.3594 30.3543 22.3594V22.7594C32.6462 22.7594 34.5409 20.9573 34.5409 18.657H34.1409Z" fill="url(#paint2_linear_159_9175)" fill-opacity="0.5" mask="url(#path-5-inside-1_159_9175)"/>
</g>
<defs>
<filter id="filter0_f_159_9175" x="0.197754" y="3.23779" width="40.6788" height="42.0674" filterUnits="userSpaceOnUse" color-interpolation-filters="sRGB">
<feFlood flood-opacity="0" result="BackgroundImageFix"/>
<feBlend mode="normal" in="SourceGraphic" in2="BackgroundImageFix" result="shape"/>
<feGaussianBlur stdDeviation="8" result="effect1_foregroundBlur_159_9175"/>
</filter>
<filter id="filter1_b_159_9175" x="10.4016" y="-1.5" width="40.0984" height="44.3511" filterUnits="userSpaceOnUse" color-interpolation-filters="sRGB">
<feFlood flood-opacity="0" result="BackgroundImageFix"/>
<feGaussianBlur in="BackgroundImageFix" stdDeviation="3.5"/>
<feComposite in2="SourceAlpha" operator="in" result="effect1_backgroundBlur_159_9175"/>
<feBlend mode="normal" in="SourceGraphic" in2="effect1_backgroundBlur_159_9175" result="shape"/>
</filter>
<filter id="filter2_bd_159_9175" x="11.3862" y="-0.312012" width="37.9546" height="37.8713" filterUnits="userSpaceOnUse" color-interpolation-filters="sRGB">
<feFlood flood-opacity="0" result="BackgroundImageFix"/>
<feGaussianBlur in="BackgroundImageFix" stdDeviation="7.5"/>
<feComposite in2="SourceAlpha" operator="in" result="effect1_backgroundBlur_159_9175"/>
<feColorMatrix in="SourceAlpha" type="matrix" values="0 0 0 0 0 0 0 0 0 0 0 0 0 0 0 0 0 0 127 0" result="hardAlpha"/>
<feOffset dx="5" dy="5"/>
<feGaussianBlur stdDeviation="5"/>
<feColorMatrix type="matrix" values="0 0 0 0 0.15375 0 0 0 0 0.522433 0 0 0 0 0.9 0 0 0 0.5 0"/>
<feBlend mode="normal" in2="effect1_backgroundBlur_159_9175" result="effect2_dropShadow_159_9175"/>
<feBlend mode="normal" in="SourceGraphic" in2="effect2_dropShadow_159_9175" result="shape"/>
</filter>
<linearGradient id="paint0_linear_159_9175" x1="22.2377" y1="9.80293" x2="40.7136" y2="29.2533" gradientUnits="userSpaceOnUse">
<stop stop-color="white" stop-opacity="0.25"/>
<stop offset="1" stop-color="white" stop-opacity="0"/>
</linearGradient>
<linearGradient id="paint1_linear_159_9175" x1="33.7769" y1="16.1094" x2="24.9164" y2="16.4014" gradientUnits="userSpaceOnUse">
<stop stop-color="white"/>
<stop offset="1" stop-color="white" stop-opacity="0.2"/>
</linearGradient>
<linearGradient id="paint2_linear_159_9175" x1="27.2431" y1="17.3285" x2="33.9977" y2="17.3662" gradientUnits="userSpaceOnUse">
<stop stop-color="white"/>
<stop offset="1" stop-color="white" stop-opacity="0"/>
</linearGradient>
</defs>
</svg>
