<svg width="30" height="20" viewBox="0 0 30 20" fill="none" xmlns="http://www.w3.org/2000/svg">
<g clip-path="url(#clip0_514_3331)">
<path d="M0 0.493774H29.6296V20.2471H0V0.493774Z" fill="#F0F0F0"/>
<path d="M16.6667 0.493591H12.963V8.51824H0V12.2219H12.963V20.2466H16.6667V12.2219H29.6296V8.51824H16.6667V0.493591Z" fill="#D80027"/>
<path d="M22.7885 13.8054L29.6296 17.6061V13.8054H22.7885ZM18.0354 13.8054L29.6296 20.2466V18.4252L21.314 13.8054H18.0354ZM26.5413 20.2466L18.0354 15.5207V20.2466H26.5413Z" fill="#0052B4"/>
<path d="M18.0354 13.8054L29.6296 20.2466V18.4252L21.314 13.8054H18.0354Z" fill="#F0F0F0"/>
<path d="M18.0354 13.8054L29.6296 20.2466V18.4252L21.314 13.8054H18.0354Z" fill="#D80027"/>
<path d="M5.22807 13.8054L0 16.7099V13.8054H5.22807ZM11.5942 14.6245V20.2466H1.47517L11.5942 14.6245Z" fill="#0052B4"/>
<path d="M8.31557 13.8054L0 18.4252V20.2466L11.5942 13.8054H8.31557Z" fill="#D80027"/>
<path d="M6.84115 6.9348L0 3.1341V6.9348H6.84115ZM11.5942 6.9348L0 0.493591V2.315L8.31557 6.9348H11.5942ZM3.08831 0.493591L11.5942 5.21952V0.493591H3.08831Z" fill="#0052B4"/>
<path d="M11.5942 6.9348L0 0.493591V2.315L8.31557 6.9348H11.5942Z" fill="#F0F0F0"/>
<path d="M11.5942 6.9348L0 0.493591V2.315L8.31557 6.9348H11.5942Z" fill="#D80027"/>
<path d="M24.4015 6.93498L29.6296 4.03046V6.93498H24.4015ZM18.0354 6.11588V0.493713H28.1544L18.0354 6.11588Z" fill="#0052B4"/>
<path d="M21.314 6.9348L29.6296 2.315V0.493591L18.0354 6.9348H21.314Z" fill="#D80027"/>
</g>
<defs>
<clipPath id="clip0_514_3331">
<rect width="29.6296" height="20" fill="white"/>
</clipPath>
</defs>
</svg>
