<svg width="24" height="26" viewBox="0 0 24 26" fill="none" xmlns="http://www.w3.org/2000/svg">
<path d="M19.6743 0.9375H5.89702C2.79795 0.9375 0.28566 3.44979 0.28566 6.54886V20.3261C0.28566 23.4252 2.79795 25.9375 5.89702 25.9375H19.6743C22.7734 25.9375 25.2857 23.4252 25.2857 20.3261V6.54886C25.2857 3.44979 22.7734 0.9375 19.6743 0.9375Z" fill="white"/>
<path d="M7.21326 11.3289H9.81111V19.7113H7.21326V11.3289ZM8.53817 7.1637C8.8358 7.1637 9.12677 7.25186 9.37437 7.41704C9.62196 7.58223 9.81509 7.81704 9.92938 8.09186C10.0437 8.36668 10.074 8.66919 10.0166 8.96123C9.95913 9.25328 9.81648 9.52177 9.60663 9.73283C9.39677 9.94389 9.1291 10.0881 8.83739 10.1472C8.54568 10.2063 8.243 10.1777 7.96753 10.065C7.69206 9.95226 7.45615 9.76049 7.28955 9.51385C7.12294 9.2672 7.03312 8.97674 7.03141 8.67911C7.03027 8.48051 7.0684 8.28365 7.14361 8.09984C7.21882 7.91603 7.32963 7.74891 7.46966 7.60807C7.60969 7.46724 7.77617 7.35548 7.95955 7.27921C8.14292 7.20295 8.33957 7.16369 8.53817 7.1637Z" fill="#0B1C2A"/>
<path d="M11.4737 11.3289H13.9763V12.4719C14.2269 12.0444 14.5888 11.6929 15.0234 11.455C15.4581 11.2171 15.9492 11.1017 16.4443 11.1211C19.0422 11.1211 19.5704 12.853 19.5704 15.1131V19.7113H16.9725V15.6586C16.9725 14.6888 16.9725 13.4331 15.6217 13.4331C14.2708 13.4331 14.0629 14.4896 14.0629 15.5807V19.7286H11.4651L11.4737 11.3289Z" fill="#0B1C2A"/>
</svg>
