<svg width="26" height="25" viewBox="0 0 26 25" fill="none" xmlns="http://www.w3.org/2000/svg">
<path d="M21.4758 3.74121C19.1174 1.39746 15.9778 0.108398 12.6428 0.108398C9.30788 0.108398 6.17311 1.39746 3.81471 3.74121C1.45143 6.08496 0.152603 9.2002 0.152603 12.5156C0.152603 15.8311 1.45143 18.9463 3.81471 21.29C6.17311 23.6289 9.30788 24.9229 12.6428 24.9229C15.9778 24.9229 19.1126 23.6338 21.471 21.29C23.8342 18.9463 25.1331 15.8311 25.1331 12.5156C25.1331 9.2002 23.8342 6.08496 21.4758 3.74121ZM22.3889 8.53125H17.7551C17.7503 8.5166 17.7503 8.50195 17.7454 8.4873C17.2962 6.06055 16.637 4.01953 16.1243 2.64746C18.9612 3.63379 21.2464 5.79199 22.3889 8.53125ZM11.2317 2.15918C11.6956 2.0957 12.1643 2.06641 12.6428 2.06641C13.0383 2.06641 13.4241 2.09082 13.8049 2.12988C14.2249 3.10156 15.1673 5.49414 15.763 8.53125H9.71803C10.2258 5.15234 11.0706 2.62793 11.2317 2.15918ZM2.10573 12.5156C2.10573 11.8223 2.17409 11.1436 2.30592 10.4844H7.51588C7.33522 12.4424 7.32057 14.3271 7.47194 16.0996H2.74538C2.33034 14.9814 2.10573 13.7754 2.10573 12.5156ZM3.71217 18.0527H7.71608C7.96022 19.542 8.32643 20.9482 8.82448 22.252C6.70046 21.4316 4.90846 19.9424 3.71217 18.0527ZM7.74538 8.53125H2.90163C4.02467 5.84082 6.24635 3.7168 9.00514 2.70605C8.63893 3.95605 8.10182 6.02148 7.74538 8.53125ZM14.0491 22.8721C13.5901 22.9307 13.1214 22.9648 12.6477 22.9648C12.1594 22.9648 11.6809 22.9307 11.2073 22.8672C10.4651 21.3242 9.98659 19.6885 9.70338 18.0527H15.8606C15.5139 19.6787 14.9378 21.3145 14.0491 22.8721ZM16.1633 16.0996H9.43971C9.25905 14.1025 9.31764 12.1738 9.47878 10.4844H16.0803C16.2952 12.1787 16.3782 14.1074 16.1633 16.0996ZM16.5637 22.2178C17.1399 20.9141 17.5745 19.5225 17.8528 18.0527H21.5784C20.4016 19.918 18.6438 21.3877 16.5637 22.2178ZM18.136 16.0996L18.1506 15.9238C18.3069 14.1953 18.2727 12.3691 18.0481 10.4844H22.9846C23.1165 11.1436 23.1848 11.8223 23.1848 12.5156C23.1848 13.7754 22.9602 14.9814 22.5452 16.0996H18.136Z" fill="#E1F5FE"/>
</svg>
